# xmcd CD database file
#
# Track frame offsets:
#	150
#	26674
#	55724
#	83024
#	107124
#	140250
#	176249
#
# Disc length: 2737 seconds
#
# Revision: 0
# Processed by: cddbd v1.5.2PL0 Copyright (c) Steve Scherf et al.
# Submitted via: CDex 1.78
#
DISCID=550aaf07
DTITLE=T.H.E.O. - Earthing
DYEAR=2013
DGENRE=Jazz
TTITLE0=T.H.E.O. - Hore Haj Dolu Haj
TTITLE1=T.H.E.O. - Burchak
TTITLE2=T.H.E.O. - Chovendo na Roseira
TTITLE3=T.H.E.O. - Shower
TTITLE4=T.H.E.O. - Mano
TTITLE5=T.H.E.O. - Off Shoot
TTITLE6=T.H.E.O. - Vampdance
EXTD=YEAR: 2013
EXTT0=
EXTT1=
EXTT2=
EXTT3=
EXTT4=
EXTT5=
EXTT6=
PLAYORDER=
